<?xml version="1.0" standalone="no"?>
<!DOCTYPE svg PUBLIC "-//W3C//DTD SVG 20010904//EN"
 "http://www.w3.org/TR/2001/REC-SVG-20010904/DTD/svg10.dtd">
<svg version="1.0" xmlns="http://www.w3.org/2000/svg"
 width="260.000000pt" height="260.000000pt" viewBox="0 0 260.000000 260.000000"
 preserveAspectRatio="xMidYMid meet">
<metadata>
Created by potrace 1.11, written by Peter Selinger 2001-2013
</metadata>
<g transform="translate(0.000000,260.000000) scale(0.100000,-0.100000)"
fill="#000000" stroke="none">
<path d="M0 2470 l0 -130 359 0 359 0 16 -47 c58 -182 97 -315 94 -319 -3 -2
-20 7 -38 21 -63 47 -136 67 -256 73 -169 7 -281 -33 -384 -137 -110 -111
-156 -243 -147 -421 10 -200 64 -329 191 -456 65 -65 98 -90 166 -122 120 -58
228 -82 372 -82 141 0 238 19 336 65 165 78 249 208 276 428 l6 47 -175 0
c-175 0 -175 0 -175 -22 0 -81 -58 -161 -143 -199 -79 -35 -211 -34 -288 2
-79 37 -133 90 -171 166 -26 53 -32 80 -36 149 -10 196 77 300 262 311 121 8
179 -12 260 -87 l64 -60 151 0 c114 0 151 3 151 13 0 6 -65 219 -144 472
l-144 460 -481 3 -481 2 0 -130z"/>
<path d="M1627 2488 c-14 -57 -327 -1567 -327 -1577 0 -8 45 -11 145 -11 l144
0 10 38 c5 20 12 53 16 72 14 73 16 75 35 34 82 -184 431 -229 648 -83 185
122 289 333 299 604 5 112 2 143 -16 215 -53 209 -192 320 -400 320 -123 0
-197 -26 -286 -99 -27 -22 -50 -39 -52 -37 -2 1 22 121 52 265 30 143 55 266
55 271 0 6 -61 10 -159 10 -156 0 -159 0 -164 -22z m509 -643 c56 -16 81 -39
115 -105 20 -39 24 -59 23 -145 0 -210 -87 -391 -220 -455 -50 -25 -150 -29
-208 -10 -44 14 -109 86 -124 138 -27 89 -5 262 48 379 31 67 106 155 155 181
65 34 136 39 211 17z"/>
<path d="M720 779 c0 -6 45 -181 100 -389 55 -208 100 -380 100 -384 0 -3 58
-6 130 -6 l129 0 10 38 c5 20 31 125 57 232 25 107 49 201 53 208 4 7 34 -98
67 -233 l59 -245 127 0 c112 0 127 2 132 18 10 34 206 763 206 768 0 3 -44 3
-97 2 l-98 -3 -70 -292 c-38 -160 -73 -294 -76 -297 -3 -3 -38 129 -78 294
l-73 300 -94 0 -93 0 -10 -37 c-5 -21 -40 -155 -76 -298 -37 -143 -68 -261
-69 -262 -1 -2 -33 131 -72 295 l-69 297 -97 3 c-69 2 -98 -1 -98 -9z"/>
</g>
</svg>
