<?xml version="1.0" standalone="no"?>
<!DOCTYPE svg PUBLIC "-//W3C//DTD SVG 20010904//EN"
 "http://www.w3.org/TR/2001/REC-SVG-20010904/DTD/svg10.dtd">
<svg version="1.0" xmlns="http://www.w3.org/2000/svg"
 width="520.000000pt" height="520.000000pt" viewBox="0 0 520.000000 520.000000"
 preserveAspectRatio="xMidYMid meet">
<metadata>
Created by potrace 1.11, written by Peter Selinger 2001-2013
</metadata>
<g transform="translate(0.000000,520.000000) scale(0.100000,-0.100000)"
fill="#000000" stroke="none">
<path d="M3305 4978 c-2 -7 -8 -31 -13 -53 -12 -51 -5 -27 -428 -1520 -196
-693 -359 -1267 -361 -1275 -3 -13 -18 -14 -91 -8 -48 3 -106 7 -129 7 -31 1
-43 5 -43 16 0 8 -9 15 -20 15 -11 0 -20 -4 -20 -10 0 -13 -67 -13 -75 0 -3 6
-22 10 -41 10 -33 0 -34 1 -34 39 0 39 1 40 38 43 35 3 37 5 37 36 0 30 2 32
37 32 37 0 38 -1 38 -35 0 -34 -1 -35 -40 -35 l-40 0 0 -40 0 -40 40 0 40 0 0
40 c0 38 2 40 30 40 28 0 30 2 30 40 0 38 -2 40 -30 40 -28 0 -30 3 -30 35 0
33 2 35 35 35 34 0 35 1 35 40 0 39 -1 40 -35 40 -33 0 -35 2 -35 35 0 32 2
35 30 35 28 0 30 2 30 40 0 38 -2 40 -30 40 -28 0 -30 3 -30 35 0 31 3 35 26
35 21 0 24 4 19 20 -6 18 0 20 112 22 l119 3 -78 710 c-42 391 -77 721 -77
735 -1 25 -10 29 -278 109 -153 46 -309 93 -348 106 -38 12 -110 35 -160 49
-49 15 -146 45 -215 66 -328 101 -626 190 -636 190 -14 0 -21 -54 -30 -215
l-6 -120 133 -39 c74 -21 159 -47 189 -57 30 -10 170 -52 310 -94 140 -42 266
-80 280 -85 14 -4 79 -25 145 -45 136 -42 279 -87 282 -90 2 -1 93 -769 93
-783 0 -2 -30 24 -67 58 -78 71 -185 127 -318 166 -74 22 -117 27 -240 31
-219 7 -365 -21 -530 -104 -345 -172 -552 -580 -532 -1048 12 -280 102 -497
282 -681 210 -215 476 -320 830 -329 l119 -3 108 -444 c59 -243 110 -453 113
-466 l5 -22 187 2 187 3 126 382 c69 210 127 383 130 383 3 0 36 -163 74 -363
38 -199 73 -372 77 -384 8 -23 10 -23 207 -23 l199 0 203 518 c112 284 204
519 206 522 1 4 45 2 96 -3 111 -10 267 3 383 33 44 11 130 45 191 74 371 182
626 536 725 1007 27 131 38 426 19 551 -27 189 -105 360 -218 480 -132 140
-288 219 -497 253 -305 50 -562 -20 -783 -213 -44 -38 -72 -57 -69 -46 4 11
81 282 172 604 91 322 174 614 184 650 37 126 61 215 61 223 0 4 -90 7 -200 7
-152 0 -202 -3 -205 -12z m645 -1568 c0 -28 2 -30 40 -30 36 0 40 2 40 26 0
22 3 25 23 20 12 -3 28 -6 35 -6 6 0 12 -9 12 -20 0 -16 -7 -20 -35 -20 -33 0
-35 -2 -35 -35 0 -34 -1 -35 -40 -35 -39 0 -40 1 -40 35 0 33 -2 35 -35 35
-30 0 -35 3 -35 24 0 24 13 32 53 35 13 1 17 -7 17 -29z m-114 -30 c32 0 34
-2 34 -35 0 -33 -2 -35 -35 -35 -33 0 -35 2 -35 35 0 33 -2 35 -34 35 -57 0
-54 34 4 42 20 2 26 -2 28 -19 3 -19 10 -23 38 -23z m346 -30 c-4 -38 -6 -40
-38 -40 -32 0 -34 2 -34 34 0 33 2 35 38 39 20 2 37 4 37 5 0 1 -1 -16 -3 -38z
m-462 -5 c0 -33 -2 -35 -35 -35 -33 0 -35 2 -35 35 0 33 2 35 35 35 33 0 35
-2 35 -35z m-150 -15 c0 -17 -7 -20 -37 -20 l-38 1 35 19 c19 11 36 19 38 20
1 0 2 -9 2 -20z m710 -5 c10 -12 10 -15 -4 -15 -9 0 -16 7 -16 15 0 8 2 15 4
15 2 0 9 -7 16 -15z m-790 -60 c0 -33 -2 -35 -35 -35 -34 0 -35 -1 -35 -40 0
-39 1 -40 35 -40 33 0 35 -2 35 -35 0 -33 -2 -35 -35 -35 -33 0 -35 2 -35 35
0 33 -2 35 -35 35 -23 0 -38 6 -42 16 -7 19 34 64 59 64 10 0 18 5 18 12 0 12
49 57 63 58 4 0 7 -16 7 -35z m160 0 c0 -33 2 -35 34 -35 35 0 44 10 41 48 -1
19 3 22 37 22 37 0 38 -1 38 -35 0 -33 2 -35 35 -35 34 0 35 -1 35 -40 0 -39
-1 -40 -35 -40 -33 0 -35 -2 -35 -35 0 -34 -1 -35 -41 -35 -39 0 -40 1 -37 33
3 30 1 32 -34 35 -37 3 -38 3 -38 -32 0 -35 -1 -36 -40 -36 -39 0 -40 1 -40
35 0 33 -2 35 -35 35 -34 0 -35 1 -35 40 0 39 1 40 35 40 33 0 35 2 35 35 0
34 1 35 40 35 39 0 40 -1 40 -35z m300 0 c0 -34 1 -35 40 -35 39 0 40 1 40 35
0 33 2 35 35 35 33 0 35 -2 35 -35 0 -33 -2 -35 -34 -35 -33 0 -35 -2 -38 -37
-3 -36 -5 -38 -38 -38 -33 0 -35 2 -38 38 -3 35 -5 37 -38 37 -32 0 -34 2 -34
35 0 33 2 35 35 35 33 0 35 -2 35 -35z m310 0 c0 -33 2 -35 35 -35 29 0 35 4
35 22 0 21 0 21 21 2 l21 -19 -21 -3 c-17 -3 -21 -10 -21 -43 0 -39 0 -39 40
-39 39 0 40 -1 40 -35 0 -34 -1 -35 -40 -35 -39 0 -40 1 -40 35 0 33 -2 35
-35 35 -33 0 -35 -2 -35 -35 0 -34 -1 -35 -40 -35 -39 0 -40 1 -40 35 0 33 -2
35 -35 35 -34 0 -35 1 -35 40 0 39 1 40 35 40 33 0 35 2 35 35 0 34 1 35 40
35 39 0 40 -1 40 -35z m-920 -150 c0 -33 -2 -35 -35 -35 -19 0 -35 5 -35 10 0
22 33 60 51 60 15 0 19 -7 19 -35z m610 0 c0 -33 -2 -35 -35 -35 -33 0 -35 2
-35 35 0 33 2 35 35 35 33 0 35 -2 35 -35z m150 0 c0 -33 -2 -35 -35 -35 -33
0 -35 2 -35 35 0 33 2 35 35 35 33 0 35 -2 35 -35z m-2660 -80 c0 -33 2 -35
35 -35 33 0 35 -2 35 -35 0 -33 -2 -35 -35 -35 -33 0 -35 2 -35 35 0 34 -1 35
-40 35 -39 0 -40 -1 -40 -35 0 -33 -2 -35 -35 -35 -33 0 -35 2 -35 35 0 33 2
35 35 35 33 0 35 2 35 35 0 34 1 35 40 35 39 0 40 -1 40 -35z m150 0 c0 -33 2
-35 34 -35 31 0 34 -3 38 -35 4 -35 4 -35 -34 -35 -37 0 -38 1 -38 35 0 33 -2
35 -35 35 -33 0 -35 2 -35 35 0 33 2 35 35 35 33 0 35 -2 35 -35z m1672 0 c-4
-31 -8 -35 -33 -35 -35 0 -35 3 -8 41 28 40 46 38 41 -6z m158 0 c0 -33 2 -35
35 -35 33 0 35 -2 35 -35 0 -33 -2 -35 -35 -35 -33 0 -35 2 -35 35 0 34 -1 35
-40 35 -39 0 -40 -1 -40 -35 0 -33 -2 -35 -35 -35 -33 0 -35 2 -35 35 0 33 2
35 35 35 33 0 35 2 35 35 0 34 1 35 40 35 39 0 40 -1 40 -35z m150 0 c0 -34 1
-35 40 -35 39 0 40 1 40 35 0 33 2 35 35 35 33 0 35 -2 35 -35 0 -33 -2 -35
-35 -35 -33 0 -35 -2 -35 -35 0 -34 -1 -35 -40 -35 -39 0 -40 1 -40 35 0 33
-2 35 -35 35 -33 0 -35 2 -35 35 0 33 2 35 35 35 33 0 35 -2 35 -35z m300 0
c0 -33 -2 -35 -35 -35 -33 0 -35 -2 -35 -35 0 -34 -1 -35 -39 -35 -32 0 -39 3
-36 18 2 9 4 25 4 35 1 13 10 17 36 17 33 0 35 2 35 35 0 33 2 35 35 35 33 0
35 -2 35 -35z m160 0 c0 -33 2 -35 35 -35 33 0 35 -2 35 -35 0 -33 -2 -35 -35
-35 -33 0 -35 2 -35 35 0 34 -1 35 -40 35 -39 0 -40 -1 -40 -35 0 -33 -2 -35
-35 -35 -33 0 -35 2 -35 35 0 33 2 35 35 35 33 0 35 2 35 35 0 34 1 35 40 35
39 0 40 -1 40 -35z m150 0 c0 -34 1 -35 40 -35 39 0 40 1 40 35 0 33 2 35 35
35 33 0 35 -2 35 -35 0 -34 1 -35 40 -35 39 0 40 1 40 35 0 28 4 35 20 35 11
0 20 -6 20 -12 0 -7 3 -23 6 -35 5 -20 2 -23 -20 -23 -23 0 -26 -4 -26 -35 0
-34 -1 -35 -40 -35 -39 0 -40 1 -40 35 0 33 -2 35 -35 35 -33 0 -35 -2 -35
-35 0 -34 -1 -35 -40 -35 -39 0 -40 1 -40 35 0 33 -2 35 -35 35 -33 0 -35 2
-35 35 0 33 2 35 35 35 33 0 35 -2 35 -35z m-2462 19 c15 -5 22 -14 22 -31 0
-25 2 -25 53 -21 28 3 46 3 40 1 -7 -3 -13 -20 -13 -39 0 -33 -1 -34 -40 -34
-39 0 -40 1 -40 35 0 33 -2 35 -35 35 -32 0 -35 2 -35 30 0 31 7 34 48 24z
m-438 -34 c0 -16 -7 -20 -35 -20 -33 0 -35 -2 -35 -35 0 -34 -1 -35 -40 -35
-36 0 -40 3 -40 25 0 26 25 45 59 45 12 0 21 4 21 8 0 10 38 30 58 31 6 1 12
-8 12 -19z m1910 -60 c0 -23 -4 -30 -20 -30 -18 0 -18 1 -2 30 9 16 18 30 20
30 1 0 2 -13 2 -30z m-1256 -15 c19 -14 19 -15 -7 -15 -17 0 -27 5 -27 15 0
19 9 19 34 0z m-804 -60 c0 -33 -2 -35 -35 -35 -33 0 -35 2 -35 35 0 33 2 35
35 35 33 0 35 -2 35 -35z m150 0 c0 -33 -2 -35 -35 -35 -34 0 -35 -1 -35 -40
0 -39 1 -40 35 -40 33 0 35 -2 35 -35 0 -33 -2 -35 -35 -35 -33 0 -35 2 -35
34 0 33 -2 35 -37 38 -36 3 -38 5 -38 38 0 33 2 35 38 38 35 3 37 5 37 38 0
32 2 34 35 34 33 0 35 -2 35 -35z m160 0 c0 -33 2 -35 35 -35 34 0 35 -1 35
-40 0 -39 -1 -40 -35 -40 -33 0 -35 -2 -35 -35 0 -34 -1 -35 -40 -35 -39 0
-40 1 -40 35 0 33 -2 35 -35 35 -34 0 -35 1 -35 40 0 39 1 40 35 40 33 0 35 2
35 35 0 34 1 35 40 35 39 0 40 -1 40 -35z m150 1 c0 -33 2 -35 37 -38 35 -3
37 -5 37 -38 0 -33 -2 -35 -37 -38 -35 -3 -37 -5 -37 -38 0 -32 -2 -34 -35
-34 -33 0 -35 2 -35 35 0 33 2 35 35 35 34 0 35 1 35 40 0 39 -1 40 -35 40
-33 0 -35 2 -35 35 0 33 2 35 35 35 33 0 35 -2 35 -34z m150 -1 c0 -33 -2 -35
-35 -35 -33 0 -35 2 -35 35 0 33 2 35 35 35 33 0 35 -2 35 -35z m150 0 c0 -33
-2 -35 -35 -35 -34 0 -35 -1 -35 -40 0 -39 1 -40 35 -40 33 0 35 -2 35 -35 0
-33 -2 -35 -35 -35 -33 0 -35 2 -35 34 0 33 -2 35 -37 38 -36 3 -38 5 -38 38
0 33 2 35 38 38 35 3 37 5 37 38 0 32 2 34 35 34 33 0 35 -2 35 -35z m1372 0
c-4 -32 -7 -35 -38 -35 -33 0 -34 -1 -34 -40 0 -39 1 -40 34 -40 31 0 34 -3
38 -35 4 -35 4 -35 -34 -35 -37 0 -38 1 -38 35 0 33 -2 35 -35 35 -34 0 -35 1
-35 40 0 39 1 40 35 40 33 0 35 2 35 35 0 34 1 35 38 35 38 0 38 0 34 -35z
m158 0 c0 -33 2 -35 35 -35 34 0 35 -1 35 -40 0 -39 -1 -40 -35 -40 -33 0 -35
-2 -35 -35 0 -34 -1 -35 -40 -35 -39 0 -40 1 -40 35 0 33 -2 35 -35 35 -34 0
-35 1 -35 40 0 39 1 40 35 40 33 0 35 2 35 35 0 34 1 35 40 35 39 0 40 -1 40
-35z m150 1 c0 -33 2 -35 38 -38 35 -3 37 -5 37 -38 0 -33 -2 -35 -37 -38 -36
-3 -38 -5 -38 -38 0 -32 -2 -34 -35 -34 -33 0 -35 2 -35 35 0 33 2 35 35 35
34 0 35 1 35 40 0 39 -1 40 -35 40 -33 0 -35 2 -35 35 0 33 2 35 35 35 33 0
35 -2 35 -34z m150 -1 c0 -33 -2 -35 -35 -35 -33 0 -35 2 -35 35 0 33 2 35 35
35 33 0 35 -2 35 -35z m150 0 c0 -33 -2 -35 -35 -35 -34 0 -35 -1 -35 -40 0
-39 1 -40 35 -40 33 0 35 -2 35 -35 0 -33 -2 -35 -35 -35 -33 0 -35 2 -35 34
0 33 -2 35 -37 38 -36 3 -38 5 -38 38 1 33 3 35 38 38 35 3 37 5 37 38 0 32 2
34 35 34 33 0 35 -2 35 -35z m160 0 c0 -33 2 -35 35 -35 34 0 35 -1 35 -40 0
-39 -1 -40 -35 -40 -33 0 -35 -2 -35 -35 0 -34 -1 -35 -40 -35 -39 0 -40 1
-40 35 0 33 -2 35 -35 35 -34 0 -35 1 -35 40 0 39 1 40 35 40 33 0 35 2 35 35
0 34 1 35 40 35 39 0 40 -1 40 -35z m150 1 c0 -33 2 -35 38 -38 35 -3 37 -5
37 -38 0 -33 -2 -35 -37 -38 -36 -3 -38 -5 -38 -38 0 -32 -2 -34 -35 -34 -33
0 -35 2 -35 35 0 33 2 35 35 35 34 0 35 1 35 40 0 39 -1 40 -35 40 -33 0 -35
2 -35 35 0 33 2 35 35 35 33 0 35 -2 35 -34z m150 -1 c0 -33 -2 -35 -35 -35
-33 0 -35 2 -35 35 0 33 2 35 35 35 33 0 35 -2 35 -35z m150 0 c0 -33 -2 -35
-35 -35 -34 0 -35 -1 -35 -40 0 -39 1 -40 35 -40 33 0 35 -2 35 -35 0 -33 -2
-35 -35 -35 -33 0 -35 2 -35 34 0 33 -2 35 -37 38 -36 3 -38 5 -38 38 0 33 2
35 38 38 35 3 37 5 37 38 0 32 2 34 35 34 33 0 35 -2 35 -35z m-2473 -33 c-36
-3 -37 -4 -37 -43 0 -39 0 -39 40 -39 39 0 40 1 40 35 l0 35 29 -32 30 -33
-30 -3 c-26 -3 -29 -7 -29 -38 0 -33 -1 -34 -40 -34 -39 0 -40 1 -40 35 0 33
-2 35 -35 35 -34 0 -35 1 -35 40 0 39 1 40 35 40 32 0 35 2 35 31 l0 30 37
-28 37 -28 -37 -3z m-952 -42 c0 -33 -2 -35 -37 -38 -36 -3 -38 -5 -38 -38 0
-32 -2 -34 -36 -34 -34 0 -35 1 -32 33 3 28 7 32 36 35 30 3 32 5 32 43 l0 40
38 -3 c35 -3 37 -5 37 -38z m75 -75 c0 -33 -2 -35 -35 -35 -33 0 -35 2 -35 35
0 33 2 35 35 35 33 0 35 -2 35 -35z m610 0 c0 -33 -2 -35 -35 -35 -33 0 -35 2
-35 35 0 33 2 35 35 35 33 0 35 -2 35 -35z m1370 0 c0 -32 -3 -35 -29 -35 -29
0 -29 1 -18 35 7 23 16 35 29 35 14 0 18 -8 18 -35z m610 0 c0 -33 -2 -35 -35
-35 -33 0 -35 2 -35 35 0 33 2 35 35 35 33 0 35 -2 35 -35z m610 0 c0 -33 -2
-35 -35 -35 -33 0 -35 2 -35 35 0 33 2 35 35 35 33 0 35 -2 35 -35z m-2130
-21 c0 -10 -12 -14 -39 -14 -33 0 -38 3 -34 18 3 14 12 17 39 14 20 -3 34 -10
34 -18z m-1300 -59 c0 -31 -3 -35 -25 -35 -22 0 -24 2 -14 26 21 57 39 61 39
9z m160 0 c0 -33 2 -35 35 -35 33 0 35 2 35 35 0 34 1 35 40 35 39 0 40 -1 40
-35 0 -33 2 -35 35 -35 34 0 35 -1 35 -40 0 -39 -1 -40 -35 -40 -33 0 -35 -2
-35 -34 0 -32 3 -35 33 -38 29 -3 32 -6 35 -40 3 -37 3 -38 -32 -38 -34 0 -36
-2 -36 -35 0 -34 -1 -35 -40 -35 -39 0 -40 1 -40 35 0 33 -2 35 -35 35 -33 0
-35 -2 -35 -35 0 -34 -1 -35 -40 -35 -39 0 -40 1 -40 35 0 33 -2 35 -36 35
-35 0 -35 1 -32 38 3 34 6 37 33 37 27 0 30 -3 33 -37 3 -37 4 -38 42 -38 38
0 39 1 42 38 3 34 6 37 33 37 27 0 30 -3 33 -37 3 -37 4 -38 43 -38 39 0 39 0
39 40 l0 40 -40 0 c-39 0 -40 1 -40 35 0 33 -2 35 -35 35 -33 0 -35 -2 -35
-35 0 -34 -1 -35 -40 -35 -39 0 -40 1 -40 35 0 33 -2 35 -35 35 -34 0 -35 1
-35 40 0 39 1 40 35 40 33 0 35 2 35 35 0 34 1 35 40 35 39 0 40 -1 40 -35z
m300 0 c0 -34 1 -35 40 -35 39 0 40 1 40 35 0 33 2 35 35 35 33 0 35 -2 35
-35 0 -33 -2 -35 -34 -35 -33 0 -35 -2 -38 -37 -3 -36 -5 -38 -38 -38 -33 0
-35 2 -38 38 -3 35 -5 37 -38 37 -32 0 -34 2 -34 35 0 33 2 35 35 35 33 0 35
-2 35 -35z m302 0 c-4 -32 -7 -35 -38 -35 -33 0 -34 -1 -34 -40 l0 -40 40 0
40 0 0 40 c0 39 1 40 35 40 33 0 35 2 35 35 0 34 1 35 40 35 39 0 40 -1 40
-35 0 -33 2 -35 35 -35 34 0 35 -1 35 -40 0 -39 -1 -40 -35 -40 -33 0 -35 -2
-35 -35 0 -34 -1 -35 -40 -35 -39 0 -40 1 -40 36 0 35 -1 35 -37 32 -36 -3
-38 -5 -38 -35 0 -31 -2 -33 -37 -33 -37 0 -38 1 -38 35 0 33 -2 35 -35 35
-34 0 -35 1 -35 40 0 39 1 40 35 40 33 0 35 2 35 35 0 34 1 35 38 35 38 0 38
0 34 -35z m308 0 c0 -34 1 -35 40 -35 39 0 40 1 40 35 0 33 2 35 35 35 33 0
35 -2 35 -35 0 -33 -2 -35 -34 -35 -33 0 -35 -2 -38 -37 -3 -36 -5 -38 -38
-38 -33 0 -35 2 -38 38 -3 35 -5 37 -38 37 -32 0 -34 2 -34 35 0 33 2 35 35
35 33 0 35 -2 35 -35z m1220 0 c0 -33 2 -35 35 -35 34 0 35 -1 35 -40 0 -39
-1 -40 -35 -40 -33 0 -35 -2 -35 -35 0 -33 -2 -35 -35 -35 -33 0 -35 2 -35 35
0 33 2 35 35 35 34 0 35 1 35 40 0 39 -1 40 -35 40 -33 0 -35 2 -35 35 0 33 2
35 35 35 33 0 35 -2 35 -35z m150 0 c0 -34 1 -35 40 -35 39 0 40 1 40 35 0 33
2 35 35 35 33 0 35 -2 35 -35 0 -33 -2 -35 -34 -35 -33 0 -35 -2 -38 -37 -3
-36 -5 -38 -38 -38 -33 0 -35 2 -38 38 -3 35 -5 37 -38 37 -32 0 -34 2 -34 35
0 33 2 35 35 35 33 0 35 -2 35 -35z m310 0 c0 -33 2 -35 34 -35 35 0 44 10 41
48 -1 19 3 22 37 22 37 0 38 -1 38 -35 0 -33 2 -35 35 -35 34 0 35 -1 35 -40
0 -39 -1 -40 -35 -40 -33 0 -35 -2 -35 -35 0 -34 -1 -35 -39 -35 -39 0 -40 1
-38 33 2 30 0 32 -35 35 -37 3 -38 3 -38 -32 0 -35 -1 -36 -40 -36 -39 0 -40
1 -40 35 0 33 -2 35 -35 35 -34 0 -35 1 -35 40 0 39 1 40 35 40 33 0 35 2 35
35 0 34 1 35 40 35 39 0 40 -1 40 -35z m300 0 c0 -34 1 -35 40 -35 39 0 40 1
40 35 0 33 2 35 35 35 33 0 35 -2 35 -35 0 -33 -2 -35 -34 -35 -33 0 -35 -2
-38 -37 -3 -36 -5 -38 -38 -38 -33 0 -35 2 -38 38 -3 35 -5 37 -38 37 -32 0
-34 2 -34 35 0 33 2 35 35 35 33 0 35 -2 35 -35z m310 0 c0 -33 2 -35 35 -35
33 0 35 2 35 35 0 34 1 35 40 35 39 0 40 -1 40 -35 0 -31 3 -35 26 -35 24 0
26 -3 20 -31 -3 -17 -6 -37 -6 -44 0 -8 -8 -11 -20 -8 -16 4 -20 14 -20 44 0
39 0 39 -40 39 l-40 0 0 -40 0 -40 40 0 c39 0 40 -1 40 -35 0 -34 -1 -35 -40
-35 -39 0 -40 1 -40 35 0 33 -2 35 -35 35 -33 0 -35 -2 -35 -35 0 -34 -1 -35
-40 -35 l-40 0 0 -40 c0 -40 0 -40 39 -40 39 0 40 1 43 38 3 34 6 37 33 37 27
0 30 -3 33 -37 3 -36 5 -38 39 -38 30 0 34 -3 28 -17 -4 -10 -10 -26 -12 -35
-3 -11 -15 -18 -29 -18 -21 0 -24 5 -24 35 0 33 -2 35 -35 35 -33 0 -35 -2
-35 -35 0 -34 -1 -35 -40 -35 -39 0 -40 1 -40 35 0 33 -2 35 -36 35 -35 0 -35
1 -32 38 3 34 6 37 36 40 29 3 32 6 32 38 0 32 -2 34 -35 34 -34 0 -35 1 -35
40 0 39 1 40 35 40 33 0 35 2 35 35 0 34 1 35 40 35 39 0 40 -1 40 -35z
m-1184 -35 c33 0 34 -1 34 -40 0 -39 -1 -40 -35 -40 -33 0 -35 -2 -35 -35 0
-30 -3 -35 -23 -35 -21 0 -23 4 -19 31 3 21 12 33 24 37 18 4 20 11 16 56 -3
28 -3 45 -1 39 3 -7 20 -13 39 -13z m-876 -40 c0 -39 -1 -40 -33 -40 -42 0
-44 2 -39 45 4 32 7 35 38 35 33 0 34 -1 34 -40z m-1300 -75 c0 -33 -2 -35
-35 -35 -33 0 -35 2 -35 35 0 33 2 35 35 35 33 0 35 -2 35 -35z m460 0 c0 -33
-2 -35 -35 -35 -33 0 -35 2 -35 35 0 33 2 35 35 35 33 0 35 -2 35 -35z m150 0
c0 -33 -2 -35 -35 -35 -33 0 -35 2 -35 35 0 33 2 35 35 35 33 0 35 -2 35 -35z
m460 0 c0 -33 -2 -35 -35 -35 -33 0 -35 2 -35 35 0 33 2 35 35 35 33 0 35 -2
35 -35z m150 0 c0 -33 -2 -35 -35 -35 -33 0 -35 2 -35 35 0 33 2 35 35 35 33
0 35 -2 35 -35z m1220 0 c0 -33 -2 -35 -35 -35 -33 0 -35 2 -35 35 0 33 2 35
35 35 33 0 35 -2 35 -35z m150 0 c0 -33 -2 -35 -35 -35 -33 0 -35 2 -35 35 0
33 2 35 35 35 33 0 35 -2 35 -35z m460 0 c0 -33 -2 -35 -35 -35 -33 0 -35 2
-35 35 0 33 2 35 35 35 33 0 35 -2 35 -35z m150 0 c0 -33 -2 -35 -35 -35 -33
0 -35 2 -35 35 0 33 2 35 35 35 33 0 35 -2 35 -35z m-2676 -41 c10 -4 16 -18
16 -40 0 -32 2 -34 35 -34 33 0 35 -2 35 -35 0 -33 -2 -35 -35 -35 -33 0 -35
2 -35 35 0 34 -1 35 -40 35 -39 0 -40 -1 -40 -35 0 -33 -2 -35 -35 -35 -33 0
-35 2 -35 35 0 33 2 35 35 35 33 0 35 2 35 34 0 41 24 55 64 40z m164 -36 c3
-36 5 -38 37 -38 30 0 33 -3 37 -35 4 -35 4 -35 -34 -35 -37 0 -38 1 -38 35 0
33 -2 35 -35 35 -33 0 -35 2 -35 33 0 41 7 49 40 45 21 -3 25 -9 28 -40z m150
0 c3 -37 4 -38 42 -38 38 0 39 1 42 38 3 34 6 37 33 37 27 0 30 -3 33 -37 3
-37 3 -38 -32 -38 -34 0 -36 -2 -36 -35 0 -34 -1 -35 -40 -35 -39 0 -40 1 -40
35 0 33 -2 35 -35 35 -33 0 -35 2 -35 33 0 41 7 49 40 45 21 -3 25 -9 28 -40z
m296 36 c10 -4 16 -18 16 -40 0 -32 2 -34 35 -34 33 0 35 -2 35 -35 0 -33 -2
-35 -35 -35 -33 0 -35 2 -35 35 0 34 -1 35 -40 35 -39 0 -40 -1 -40 -35 0 -33
-2 -35 -35 -35 -33 0 -35 2 -35 35 0 33 2 35 35 35 33 0 35 2 35 34 0 41 24
55 64 40z m164 -36 c3 -37 2 -38 -31 -38 -32 0 -35 3 -39 35 -4 37 3 45 42 42
21 -2 25 -8 28 -39z m910 0 c3 -37 3 -38 -32 -38 -34 0 -36 -2 -36 -35 0 -32
-2 -35 -30 -35 -28 0 -30 3 -30 35 0 32 2 35 30 35 27 0 30 3 30 33 0 41 7 49
40 45 21 -3 25 -9 28 -40z m150 0 c3 -37 3 -38 -32 -38 -34 0 -36 -2 -36 -35
0 -33 -2 -35 -35 -35 -33 0 -35 2 -35 35 0 33 2 35 35 35 33 0 35 2 35 34 0
36 11 46 45 43 15 -2 21 -10 23 -39z m146 36 c10 -4 16 -18 16 -40 0 -32 2
-34 35 -34 33 0 35 -2 35 -35 0 -33 -2 -35 -35 -35 -33 0 -35 2 -35 35 0 34
-1 35 -40 35 -39 0 -40 -1 -40 -35 0 -33 -2 -35 -35 -35 -33 0 -35 2 -35 35 0
33 2 35 35 35 33 0 35 2 35 34 0 41 24 55 64 40z m164 -36 c3 -37 4 -38 42
-38 38 0 39 1 42 38 3 34 6 37 33 37 27 0 30 -3 33 -37 3 -37 3 -38 -32 -38
-34 0 -36 -2 -36 -35 0 -34 -1 -35 -40 -35 -39 0 -40 1 -40 35 0 33 -2 35 -35
35 -33 0 -35 2 -35 33 0 41 7 49 40 45 21 -3 25 -9 28 -40z m300 0 c3 -37 3
-38 -32 -38 -34 0 -36 -2 -36 -35 0 -34 -1 -35 -39 -35 -32 0 -39 3 -36 18 2
9 4 25 4 35 1 13 10 17 36 17 33 0 35 2 35 33 0 41 7 49 40 45 21 -3 25 -9 28
-40z m146 36 c10 -4 16 -18 16 -40 0 -32 2 -34 35 -34 33 0 35 -2 35 -35 0
-33 -2 -35 -35 -35 -33 0 -35 2 -35 35 0 34 -1 35 -40 35 -39 0 -40 -1 -40
-35 0 -33 -2 -35 -35 -35 -33 0 -35 2 -35 35 0 33 2 35 35 35 33 0 35 2 35 34
0 41 24 55 64 40z m409 -14 c-3 -12 -8 -19 -11 -16 -5 6 5 36 12 36 2 0 2 -9
-1 -20z m-3593 -25 c0 -33 2 -35 35 -35 33 0 35 -2 35 -35 0 -33 -2 -35 -35
-35 -33 0 -35 2 -35 35 0 19 -4 35 -10 35 -5 0 -10 16 -10 35 0 19 5 35 10 35
6 0 10 -16 10 -35z m0 -150 c0 -33 2 -35 35 -35 34 0 35 -1 35 -40 0 -39 -1
-40 -34 -40 -25 0 -36 -5 -39 -17 -2 -10 -2 8 1 40 3 39 1 57 -7 57 -6 0 -11
15 -11 35 0 19 5 35 10 35 6 0 10 -16 10 -35z m150 1 c0 -33 2 -35 38 -38 35
-3 37 -5 37 -38 0 -33 -2 -35 -37 -38 -36 -3 -38 -5 -38 -38 0 -32 -2 -34 -35
-34 -33 0 -35 2 -35 35 0 33 2 35 35 35 34 0 35 1 35 40 0 39 -1 40 -35 40
-33 0 -35 2 -35 35 0 33 2 35 35 35 33 0 35 -2 35 -34z m150 -1 c0 -33 -2 -35
-35 -35 -33 0 -35 2 -35 35 0 33 2 35 35 35 33 0 35 -2 35 -35z m150 0 c0 -33
-2 -35 -35 -35 -34 0 -35 -1 -35 -40 0 -39 1 -40 35 -40 33 0 35 -2 35 -35 0
-33 -2 -35 -35 -35 -33 0 -35 2 -35 34 0 33 -2 35 -37 38 -36 3 -38 5 -38 38
0 33 2 35 38 38 35 3 37 5 37 38 0 32 2 34 35 34 33 0 35 -2 35 -35z m160 0
c0 -33 2 -35 35 -35 34 0 35 -1 35 -40 0 -39 -1 -40 -35 -40 -33 0 -35 -2 -35
-35 0 -34 -1 -35 -40 -35 -39 0 -40 1 -40 35 0 33 -2 35 -35 35 -34 0 -35 1
-35 40 0 39 1 40 35 40 33 0 35 2 35 35 0 34 1 35 40 35 39 0 40 -1 40 -35z
m150 1 c0 -33 2 -35 37 -38 35 -3 37 -5 37 -38 0 -33 -2 -35 -37 -38 -35 -3
-37 -5 -37 -38 0 -32 -2 -34 -35 -34 -33 0 -35 2 -35 35 0 33 2 35 35 35 34 0
35 1 35 40 0 39 -1 40 -35 40 -33 0 -35 2 -35 35 0 33 2 35 35 35 33 0 35 -2
35 -34z m150 -1 c0 -33 -2 -35 -35 -35 -33 0 -35 2 -35 35 0 33 2 35 35 35 33
0 35 -2 35 -35z m150 0 c0 -33 -2 -35 -35 -35 -34 0 -35 -1 -35 -40 0 -39 1
-40 35 -40 33 0 35 -2 35 -35 0 -33 -2 -35 -35 -35 -33 0 -35 2 -35 34 0 33
-2 35 -37 38 -36 3 -38 5 -38 38 0 33 2 35 38 38 35 3 37 5 37 38 0 32 2 34
35 34 33 0 35 -2 35 -35z m160 0 c0 -34 -1 -35 -40 -35 l-40 0 0 -40 0 -40 40
0 c39 0 40 -1 40 -35 0 -34 -1 -35 -40 -35 -39 0 -40 1 -40 35 0 33 -2 35 -35
35 -34 0 -35 1 -35 40 0 39 1 40 35 40 33 0 35 2 35 35 0 34 1 35 40 35 39 0
40 -1 40 -35z m1060 0 c0 -33 -2 -35 -35 -35 -34 0 -35 -1 -35 -40 0 -39 1
-40 35 -40 33 0 35 -2 35 -35 0 -33 -2 -35 -35 -35 -33 0 -35 2 -35 35 0 32
-2 35 -30 35 -25 0 -30 4 -30 24 0 13 -3 31 -6 40 -5 13 1 16 30 16 34 0 36 1
36 35 0 33 2 35 35 35 33 0 35 -2 35 -35z m152 0 c-4 -32 -7 -35 -38 -35 -33
0 -34 -1 -34 -40 0 -39 1 -40 34 -40 31 0 34 -3 38 -35 4 -35 4 -35 -34 -35
-37 0 -38 1 -38 35 0 33 -2 35 -35 35 -34 0 -35 1 -35 40 0 39 1 40 35 40 33
0 35 2 35 35 0 34 1 35 38 35 38 0 38 0 34 -35z m158 0 c0 -33 2 -35 35 -35
34 0 35 -1 35 -40 0 -39 -1 -40 -35 -40 -33 0 -35 -2 -35 -35 0 -34 -1 -35
-40 -35 -39 0 -40 1 -40 35 0 33 -2 35 -35 35 -34 0 -35 1 -35 40 0 39 1 40
35 40 33 0 35 2 35 35 0 34 1 35 40 35 39 0 40 -1 40 -35z m150 1 c0 -33 2
-35 38 -38 35 -3 37 -5 37 -38 0 -33 -2 -35 -37 -38 -36 -3 -38 -5 -38 -38 0
-32 -2 -34 -35 -34 -33 0 -35 2 -35 35 0 33 2 35 35 35 34 0 35 1 35 40 0 39
-1 40 -35 40 -33 0 -35 2 -35 35 0 33 2 35 35 35 33 0 35 -2 35 -34z m150 -1
c0 -33 -2 -35 -35 -35 -33 0 -35 2 -35 35 0 33 2 35 35 35 33 0 35 -2 35 -35z
m150 0 c0 -33 -2 -35 -35 -35 -34 0 -35 -1 -35 -40 0 -39 1 -40 35 -40 33 0
35 -2 35 -35 0 -33 -2 -35 -35 -35 -33 0 -35 2 -35 34 0 33 -2 35 -37 38 -36
3 -38 5 -38 38 1 33 3 35 38 38 35 3 37 5 37 38 0 32 2 34 35 34 33 0 35 -2
35 -35z m160 0 c0 -33 2 -35 35 -35 34 0 35 -1 35 -40 0 -39 -1 -40 -35 -40
-33 0 -35 -2 -35 -35 0 -34 -1 -35 -40 -35 -39 0 -40 1 -40 35 0 33 -2 35 -35
35 -34 0 -35 1 -35 40 0 39 1 40 35 40 33 0 35 2 35 35 0 34 1 35 40 35 39 0
40 -1 40 -35z m150 1 c0 -33 2 -35 38 -38 35 -3 37 -5 37 -38 0 -33 -2 -35
-37 -38 -36 -3 -38 -5 -38 -38 0 -32 -2 -34 -35 -34 -33 0 -35 2 -35 35 0 33
2 35 35 35 34 0 35 1 35 40 0 39 -1 40 -35 40 -33 0 -35 2 -35 35 0 33 2 35
35 35 33 0 35 -2 35 -34z m151 -4 l4 -37 -37 4 c-36 3 -38 5 -38 37 0 32 2 34
34 34 32 0 34 -2 37 -38z m-3201 -147 c0 -33 -2 -35 -35 -35 -33 0 -35 2 -35
35 0 33 2 35 35 35 33 0 35 -2 35 -35z m610 0 c0 -33 -2 -35 -35 -35 -33 0
-35 2 -35 35 0 33 2 35 35 35 33 0 35 -2 35 -35z m1980 0 c0 -33 -2 -35 -35
-35 -33 0 -35 2 -35 35 0 33 2 35 35 35 33 0 35 -2 35 -35z m570 28 c0 -5 -7
-17 -15 -27 -14 -19 -15 -19 -15 7 0 17 5 27 15 27 8 0 15 -3 15 -7z m-51 -80
c-90 -108 -112 -133 -120 -133 -5 0 -9 16 -9 35 0 33 2 35 35 35 33 0 35 2 35
34 0 32 3 35 33 39 17 2 34 5 36 5 2 1 -2 -6 -10 -15z m-3339 -28 c0 -47 -33
-50 -49 -4 -6 18 -11 34 -11 35 0 2 14 4 30 4 28 0 30 -3 30 -35z m160 0 c0
-33 2 -35 35 -35 33 0 35 2 35 35 0 34 1 35 40 35 39 0 40 -1 40 -35 0 -33 2
-35 36 -35 35 0 35 -1 32 -37 -2 -30 -7 -38 -23 -39 -11 -1 -26 -2 -32 -3 -8
-1 -13 -15 -13 -36 0 -33 2 -35 35 -35 34 0 35 -1 35 -40 0 -39 -1 -40 -35
-40 -33 0 -35 -2 -35 -35 0 -34 -1 -35 -40 -35 -39 0 -40 1 -40 35 0 33 -2 35
-34 35 -23 0 -36 -5 -38 -16 -3 -13 -5 -13 -23 0 -20 15 -20 15 3 16 19 0 22
5 22 40 l0 40 -40 0 c-35 0 -40 -3 -40 -22 -1 -23 -1 -23 -16 -3 -13 18 -13
20 0 23 11 2 16 15 16 38 0 33 1 34 40 34 39 0 40 -1 40 -35 0 -33 2 -35 35
-35 33 0 35 2 35 35 0 34 1 35 40 35 l40 0 0 40 0 40 -40 0 c-39 0 -40 -1 -40
-34 0 -41 -9 -49 -45 -40 -21 5 -25 12 -25 40 0 33 -1 34 -40 34 -39 0 -40 -1
-40 -34 0 -40 -11 -50 -46 -42 -20 5 -24 13 -24 41 0 33 2 35 35 35 33 0 35 2
35 35 0 34 1 35 40 35 39 0 40 -1 40 -35z m300 0 c0 -34 1 -35 40 -35 39 0 40
1 40 35 0 33 2 35 35 35 33 0 35 -2 35 -35 0 -33 -2 -35 -35 -35 -33 0 -35 -2
-35 -34 0 -38 -17 -50 -56 -40 -19 5 -24 13 -24 40 0 32 -2 34 -35 34 -33 0
-35 2 -35 35 0 33 2 35 35 35 33 0 35 -2 35 -35z m302 0 c-4 -32 -7 -35 -38
-35 -32 0 -34 -2 -34 -34 0 -40 -11 -50 -46 -42 -20 5 -24 13 -24 41 0 33 2
35 35 35 33 0 35 2 35 35 0 34 1 35 38 35 38 0 38 0 34 -35z m158 0 c0 -33 2
-35 36 -35 35 0 35 -1 32 -37 -3 -35 -6 -38 -33 -38 -27 0 -30 3 -33 38 -3 36
-4 37 -43 37 -38 0 -39 -1 -39 -34 0 -41 -9 -49 -45 -40 -21 5 -25 12 -25 40
0 32 2 34 35 34 33 0 35 2 35 35 0 34 1 35 40 35 39 0 40 -1 40 -35z m150 0
c0 -34 1 -35 40 -35 39 0 40 1 40 35 0 32 2 35 30 35 31 0 34 -7 24 -47 -4
-16 -14 -23 -30 -23 -21 0 -24 -5 -24 -34 0 -38 -17 -50 -56 -40 -19 5 -24 13
-24 40 0 32 -2 34 -35 34 -33 0 -35 2 -35 35 0 33 2 35 35 35 33 0 35 -2 35
-35z m1070 0 c0 -33 2 -35 36 -35 35 0 35 -1 32 -37 -5 -58 -27 -47 -71 35
-36 67 -37 72 -18 72 17 0 21 -6 21 -35z m150 0 c0 -33 2 -35 35 -35 33 0 35
-2 35 -34 0 -41 -9 -49 -45 -40 -21 5 -25 12 -25 40 0 32 -2 34 -35 34 -33 0
-35 2 -35 35 0 33 2 35 35 35 33 0 35 -2 35 -35z m150 0 c0 -34 1 -35 40 -35
39 0 40 1 40 35 0 33 2 35 35 35 33 0 35 -2 35 -35 0 -33 -2 -35 -35 -35 -33
0 -35 -2 -35 -34 0 -38 -17 -50 -56 -40 -19 5 -24 13 -24 40 0 32 -2 34 -35
34 -33 0 -35 2 -35 35 0 33 2 35 35 35 33 0 35 -2 35 -35z m310 0 c0 -33 2
-35 36 -35 35 0 35 -1 32 -37 -3 -35 -6 -38 -33 -38 -27 0 -30 3 -33 38 -3 36
-4 37 -43 37 -38 0 -39 -1 -39 -34 0 -40 -11 -50 -46 -42 -20 5 -24 13 -24 41
0 33 2 35 35 35 33 0 35 2 35 35 0 34 1 35 40 35 39 0 40 -1 40 -35z m150 0
c0 -33 2 -35 35 -35 33 0 35 -2 35 -34 0 -41 -9 -49 -45 -40 -20 5 -25 12 -25
39 0 32 -2 34 -37 37 -35 3 -37 5 -38 36 -1 31 1 32 37 32 37 0 38 -1 38 -35z
m150 0 c0 -34 1 -35 40 -35 39 0 40 1 40 35 0 33 2 35 35 35 33 0 35 -2 35
-35 0 -33 -2 -35 -35 -35 -33 0 -35 -2 -35 -34 0 -38 -17 -50 -56 -40 -19 5
-24 13 -24 40 0 32 -2 34 -35 34 -33 0 -35 2 -35 35 0 33 2 35 35 35 33 0 35
-2 35 -35z m-2590 -150 c0 -33 -2 -35 -35 -35 -33 0 -35 2 -35 35 0 33 2 35
35 35 33 0 35 -2 35 -35z m150 0 c0 -33 -2 -35 -35 -35 -33 0 -35 2 -35 35 0
33 2 35 35 35 33 0 35 -2 35 -35z m155 3 c0 -31 2 -33 38 -36 36 -3 37 -3 37
32 0 35 1 36 40 36 39 0 40 -1 40 -35 0 -33 2 -35 35 -35 34 0 35 -1 35 -40 0
-39 -1 -40 -35 -40 -33 0 -35 -2 -35 -35 0 -34 -1 -35 -40 -35 -39 0 -40 1
-40 35 0 33 -2 35 -35 35 -34 0 -35 1 -35 40 l0 40 -40 0 -40 0 0 -40 c0 -39
1 -40 34 -40 31 0 34 -3 38 -35 4 -35 4 -35 -34 -35 -37 0 -38 1 -38 35 0 33
-2 35 -35 35 -34 0 -35 1 -35 40 0 39 1 40 35 40 33 0 35 2 35 35 0 34 1 35
38 35 35 0 37 -2 37 -32z m305 -3 c0 -33 -2 -35 -35 -35 -33 0 -35 2 -35 35 0
33 2 35 35 35 33 0 35 -2 35 -35z m1220 0 c0 -26 -4 -35 -17 -35 -23 0 -53 29
-53 52 0 14 8 18 35 18 33 0 35 -2 35 -35z m150 0 c0 -33 -2 -35 -35 -35 -33
0 -35 2 -35 35 0 33 2 35 35 35 33 0 35 -2 35 -35z m150 0 c0 -33 -2 -35 -35
-35 -33 0 -35 2 -35 35 0 33 2 35 35 35 33 0 35 -2 35 -35z m160 0 c0 -33 2
-35 34 -35 35 0 44 10 41 48 -1 19 3 22 37 22 37 0 38 -1 38 -35 0 -33 2 -35
35 -35 34 0 35 -1 35 -40 0 -39 -1 -40 -35 -40 -30 0 -35 -3 -35 -24 0 -19 -7
-26 -30 -31 -38 -8 -48 -1 -42 30 4 21 10 25 38 25 33 0 34 1 34 40 l0 40 -40
0 -40 0 0 -40 c0 -39 -1 -40 -35 -40 -33 0 -35 -2 -35 -35 0 -34 -1 -35 -40
-35 -39 0 -40 1 -40 35 0 33 -2 35 -35 35 -34 0 -35 1 -35 40 0 39 1 40 35 40
33 0 35 2 35 35 0 34 1 35 40 35 39 0 40 -1 40 -35z m300 0 c0 -33 -2 -35 -35
-35 -33 0 -35 2 -35 35 0 33 2 35 35 35 33 0 35 -2 35 -35z m150 26 c0 -10
-130 -111 -143 -111 -5 0 -7 10 -5 23 2 18 10 23 41 25 35 3 37 5 37 38 0 32
2 34 35 34 19 0 35 -4 35 -9z m-1299 -73 c27 -103 123 -225 244 -310 38 -27
70 -52 70 -56 0 -15 -269 -782 -275 -782 -3 0 -38 187 -79 414 l-74 415 49
180 c27 100 50 181 51 181 1 0 7 -19 14 -42z m-1363 -30 c3 -36 5 -38 38 -38
32 0 34 -2 34 -35 0 -33 -2 -35 -35 -35 -33 0 -35 2 -35 35 0 34 -1 35 -40 35
-39 0 -40 -1 -40 -35 0 -33 -2 -35 -35 -35 -33 0 -35 2 -35 35 0 33 2 35 35
35 33 0 35 2 35 33 0 42 7 49 45 45 27 -3 30 -7 33 -40z m562 23 c-15 -29 -30
-35 -30 -13 0 22 8 32 27 32 10 0 11 -5 3 -19z m1260 -17 l0 -36 -32 21 c-47
29 -49 51 -4 51 35 0 36 -1 36 -36z m158 -6 c3 -36 5 -38 38 -38 31 0 34 -2
34 -30 0 -31 -7 -34 -47 -24 -16 4 -23 14 -23 30 0 21 -5 24 -39 24 -22 0 -41
-5 -43 -12 -4 -10 -10 -10 -29 -1 l-24 12 28 0 c24 1 27 5 27 34 0 42 7 49 45
45 27 -3 30 -7 33 -40z m-1488 -53 c-7 -8 -16 -15 -21 -15 -5 0 -9 7 -9 15 0
9 9 15 21 15 18 0 19 -2 9 -15z m-650 -95 c0 -33 -5 -35 -44 -20 -16 6 -26 17
-26 30 0 16 7 20 35 20 32 0 35 -2 35 -30z m160 -5 c0 -33 2 -35 35 -35 19 0
35 -4 35 -10 0 -5 -16 -10 -35 -10 -20 0 -35 5 -35 11 0 8 -18 10 -57 7 -32
-3 -50 -3 -40 -1 12 3 17 14 17 39 0 33 1 34 40 34 39 0 40 -1 40 -35z m150 0
c0 -31 3 -35 27 -35 14 0 24 -2 21 -5 -3 -3 -31 -3 -62 1 -56 7 -56 7 -56 40
0 32 2 34 35 34 33 0 35 -2 35 -35z m150 10 c0 -14 -1 -25 -3 -25 -1 0 -17 -4
-35 -9 -32 -10 -32 -9 -32 25 0 32 2 34 35 34 31 0 35 -3 35 -25z m608 -95
c-65 -234 -264 -838 -270 -822 -4 9 -30 136 -58 282 -28 146 -53 273 -56 282
-4 13 12 26 68 54 40 20 101 56 134 80 62 44 194 178 194 197 0 6 2 8 4 6 3
-3 -4 -38 -16 -79z"/>
<path d="M3570 3190 l0 -40 40 0 40 0 0 40 0 40 -40 0 -40 0 0 -40z"/>
<path d="M3720 3190 l0 -40 40 0 40 0 0 40 0 40 -40 0 -40 0 0 -40z"/>
<path d="M4180 3190 l0 -40 40 0 40 0 0 40 0 40 -40 0 -40 0 0 -40z"/>
<path d="M1360 2810 l0 -40 40 0 40 0 0 40 0 40 -40 0 -40 0 0 -40z"/>
<path d="M3340 2810 l0 -40 40 0 40 0 0 40 0 40 -40 0 -40 0 0 -40z"/>
<path d="M3950 2810 l0 -40 40 0 40 0 0 40 0 40 -40 0 -40 0 0 -40z"/>
<path d="M980 2580 l0 -40 40 0 40 0 0 40 0 40 -40 0 -40 0 0 -40z"/>
<path d="M1130 2580 l0 -40 40 0 40 0 0 40 0 40 -40 0 -40 0 0 -40z"/>
<path d="M1740 2580 l0 -40 40 0 40 0 0 40 0 40 -40 0 -40 0 0 -40z"/>
<path d="M3570 2580 l0 -40 40 0 40 0 0 40 0 40 -40 0 -40 0 0 -40z"/>
<path d="M3720 2580 l0 -40 40 0 40 0 0 40 0 40 -40 0 -40 0 0 -40z"/>
<path d="M4180 2580 l0 -40 40 0 40 0 0 40 0 40 -40 0 -40 0 0 -40z"/>
<path d="M1360 2200 l0 -40 40 0 40 0 0 40 0 40 -40 0 -40 0 0 -40z"/>
<path d="M3340 2200 l0 -40 40 0 40 0 0 40 0 40 -40 0 -40 0 0 -40z"/>
<path d="M3950 2200 l0 -40 40 0 40 0 0 40 0 40 -40 0 -40 0 0 -40z"/>
<path d="M1130 1820 l0 -40 40 0 40 0 0 40 0 40 -40 0 -40 0 0 -40z"/>
<path d="M1740 1820 l0 -40 40 0 40 0 0 40 0 40 -40 0 -40 0 0 -40z"/>
<path d="M3570 1820 l0 -40 40 0 40 0 0 40 0 40 -40 0 -40 0 0 -40z"/>
</g>
</svg>
