<?xml version="1.0" standalone="no"?>
<!DOCTYPE svg PUBLIC "-//W3C//DTD SVG 20010904//EN"
 "http://www.w3.org/TR/2001/REC-SVG-20010904/DTD/svg10.dtd">
<svg version="1.0" xmlns="http://www.w3.org/2000/svg"
 width="260.000000pt" height="260.000000pt" viewBox="0 0 260.000000 260.000000"
 preserveAspectRatio="xMidYMid meet">
<metadata>
Created by potrace 1.11, written by Peter Selinger 2001-2013
</metadata>
<g transform="translate(0.000000,260.000000) scale(0.100000,-0.100000)"
fill="#000000" stroke="none">
<path d="M176 2433 c1 -70 2 -131 3 -134 0 -4 20 -10 44 -14 23 -4 51 -9 62
-11 11 -2 41 -9 66 -15 26 -6 55 -12 65 -14 11 -2 19 -4 19 -5 0 -1 9 -3 20
-4 11 -2 36 -6 55 -11 19 -5 44 -9 55 -11 11 -1 20 -3 20 -4 0 -1 9 -3 20 -5
49 -7 181 -38 195 -45 14 -7 32 -57 96 -267 l13 -42 -47 30 c-84 53 -217 76
-334 58 -159 -25 -299 -157 -343 -325 -19 -71 -18 -209 1 -293 66 -284 309
-462 629 -461 106 0 126 2 218 26 188 48 316 206 321 396 l1 61 -135 -1 c-74
0 -140 -1 -146 -1 -6 -1 -16 -24 -23 -53 -15 -67 -46 -107 -106 -137 -57 -28
-168 -39 -231 -22 -131 35 -229 173 -226 318 4 165 90 253 250 256 94 1 160
-23 217 -81 l47 -47 135 0 c74 0 136 2 139 6 2 3 -14 62 -35 130 -22 68 -64
203 -94 299 -30 96 -69 220 -86 275 l-30 100 -93 19 c-51 10 -106 20 -121 22
-16 2 -32 6 -37 9 -9 5 -160 37 -195 40 -11 1 -27 5 -35 8 -14 5 -64 18 -85
22 -5 1 -12 3 -15 4 -3 2 -16 4 -30 5 -14 2 -59 11 -100 20 -41 9 -91 19 -110
22 l-35 5 1 -128z"/>
<path d="M1611 2307 c-6 -18 -13 -45 -15 -61 -5 -27 -19 -96 -32 -156 -3 -14
-7 -36 -10 -50 -2 -14 -11 -56 -20 -95 -8 -38 -17 -81 -20 -95 -13 -68 -26
-130 -53 -251 -11 -52 -22 -107 -25 -124 -7 -35 -11 -54 -25 -115 -5 -25 -12
-56 -14 -70 -3 -14 -17 -83 -32 -155 -15 -71 -29 -139 -31 -150 -2 -11 -6 -32
-10 -48 -5 -26 -4 -27 33 -28 108 -2 216 1 221 5 2 3 12 38 22 78 16 67 18 71
28 47 42 -102 168 -160 334 -154 104 4 169 24 247 76 117 78 200 204 242 364
25 97 30 273 10 355 -30 121 -96 212 -189 257 -50 24 -70 28 -164 30 -99 1
-110 -1 -170 -28 -34 -17 -80 -47 -101 -67 l-38 -37 6 40 c4 22 12 65 20 95 7
30 21 91 29 135 24 117 23 116 35 165 6 25 11 50 11 56 0 7 -46 11 -139 12
l-140 1 -10 -32z m481 -573 c87 -45 118 -172 83 -339 -28 -129 -107 -246 -192
-281 -35 -15 -114 -20 -162 -10 -74 16 -134 109 -134 209 0 225 107 410 253
437 47 9 119 1 152 -16z"/>
<path d="M873 833 c-8 -3 10 -84 46 -208 5 -16 42 -154 82 -306 l72 -276 88
-1 89 0 14 51 c8 29 35 140 61 247 26 107 50 203 54 213 4 11 27 -64 60 -200
30 -120 60 -239 68 -265 l13 -47 87 2 86 2 74 275 c40 151 87 323 103 381 17
58 30 112 30 120 0 11 -19 14 -84 14 l-84 1 -20 -86 c-12 -47 -33 -134 -47
-195 -15 -60 -28 -114 -29 -120 -2 -5 -9 -38 -16 -73 -7 -34 -14 -61 -17 -59
-2 2 -32 120 -68 262 -35 141 -66 260 -70 263 -3 3 -40 7 -81 7 -68 1 -77 -1
-85 -19 -5 -12 -36 -129 -69 -260 -52 -207 -70 -269 -70 -243 0 17 -112 494
-119 507 -6 11 -27 15 -84 15 -41 0 -79 -1 -84 -2z"/>
</g>
</svg>
